# File created by Blade
# Date/Time:  Tue Apr 07 20:49:23 2015
# Frame Rate: 120.000 fps
#------------------------------------------------------
:FULLY-SPECIFIED
:DEGREES
318
root 5.064197 33.392702 -8.108958 -69.098863 72.967351 -102.292995
Spine -22.462651 -19.898142 19.656583
Head 4.329222 9.193528 14.818297
LeftShoulder -16.853032 48.021124 16.889024
LeftArm 49.546490 -7.624012 -87.893642
LeftForeArm 7.451699 0.000000 28.800678
LeftHand 6.490469 -0.000000 12.685324
LeftHandThumb1 -26.253704 0.000000 33.147579
RightShoulder -17.387226 -15.221737 -9.572944
RightArm -15.090308 41.672092 69.545742
RightForeArm 73.023811 -0.000000 2.770945
RightHand 12.837632 -0.000000 11.686824
RightHandThumb1 -24.326973 -0.000000 -32.862282
LeftUpLeg -35.557431 -6.695199 17.007634
LeftLeg 15.266502 -0.000000 -0.000000
LeftFoot -9.740336 17.070469 -7.135656
LeftToeBase -14.959292 -0.000000 0.000000
RightUpLeg -14.865563 14.961174 -20.528110
RightLeg 123.024897 -0.000000 -0.000000
RightFoot 46.728554 6.963230 0.901439
RightToeBase 14.669973 -0.000000 -0.000000
319
root 5.068436 33.378905 -8.100782 -68.986911 72.847404 -102.252516
Spine -22.528262 -19.862605 19.797042
Head 4.327735 9.225305 14.783123
LeftShoulder -16.847757 47.982483 16.924178
LeftArm 49.483055 -7.675076 -88.005705
LeftForeArm 7.528281 0.000000 28.898955
LeftHand 6.480884 -0.000000 12.666861
LeftHandThumb1 -26.253704 0.000000 33.147579
RightShoulder -17.448288 -15.201726 -9.548685
RightArm -15.073296 41.803158 69.522265
RightForeArm 73.298020 0.000000 2.755056
RightHand 12.642795 -0.000000 12.152606
RightHandThumb1 -24.326973 -0.000000 -32.862282
LeftUpLeg -35.368314 -7.732659 17.611841
LeftLeg 14.712292 -0.000000 -0.000000
LeftFoot -9.693170 18.591150 -6.076973
LeftToeBase -14.651434 -0.000000 0.000000
RightUpLeg -14.793500 14.973460 -20.404736
RightLeg 123.054947 -0.000000 -0.000000
RightFoot 46.753065 6.829504 0.896521
RightToeBase 14.240895 -0.000000 -0.000000
320
root 5.074742 33.362071 -8.093465 -68.813790 72.726697 -102.141875
Spine -22.592479 -19.813821 19.940697
Head 4.341616 9.292495 14.742639
LeftShoulder -16.857553 47.996070 16.935617
LeftArm 49.443558 -7.731411 -88.126022
LeftForeArm 7.527249 0.000000 29.018715
LeftHand 6.459956 -0.000000 12.688236
LeftHandThumb1 -26.253704 0.000000 33.147579
RightShoulder -17.524447 -15.174391 -9.493816
RightArm -15.035464 41.939210 69.460607
RightForeArm 73.670936 0.000000 2.745234
RightHand 12.426241 0.000000 12.596777
RightHandThumb1 -24.326973 -0.000000 -32.862282
LeftUpLeg -35.168668 -8.561229 18.124599
LeftLeg 14.199012 -0.000000 -0.000000
LeftFoot -9.694581 19.819351 -5.124986
LeftToeBase -14.325828 -0.000000 0.000000
RightUpLeg -14.729230 15.007564 -20.283145
RightLeg 123.067243 -0.000000 -0.000000
RightFoot 46.761080 6.667056 1.016717
RightToeBase 14.190862 -0.000000 -0.000000
321
root 5.082286 33.343391 -8.087021 -68.588573 72.640861 -101.991247
Spine -22.684746 -19.773310 20.054401
Head 4.366950 9.367107 14.736512
LeftShoulder -16.892449 48.058479 16.935051
LeftArm 49.444858 -7.767422 -88.221709
LeftForeArm 7.559355 -0.000000 29.102060
LeftHand 6.495953 -0.000000 12.662249
LeftHandThumb1 -26.253704 0.000000 33.147579
RightShoulder -17.602031 -15.102895 -9.438665
RightArm -15.053497 42.089110 69.338374
RightForeArm 74.132170 -0.000000 2.763374
RightHand 12.193311 -0.000000 13.165652
RightHandThumb1 -24.326973 -0.000000 -32.862282
LeftUpLeg -34.993723 -9.263415 18.562589
LeftLeg 13.738915 -0.000000 -0.000000
LeftFoot -9.706118 20.845447 -4.234926
LeftToeBase -13.914807 -0.000000 0.000000
RightUpLeg -14.683397 15.019901 -20.198963
RightLeg 123.082537 -0.000000 -0.000000
RightFoot 46.753647 6.516528 1.100011
RightToeBase 14.339605 -0.000000 -0.000000
322
root 5.087940 33.323184 -8.082786 -68.296433 72.605423 -101.795045
Spine -22.805909 -19.715099 20.116896
Head 4.406721 9.440630 14.747664
LeftShoulder -16.866090 48.068052 16.993851
LeftArm 49.365956 -7.804655 -88.272604
LeftForeArm 7.494988 -0.000000 29.200817
LeftHand 6.499104 -0.000000 12.645036
LeftHandThumb1 -26.253704 0.000000 33.147579
RightShoulder -17.705316 -14.988178 -9.383071
RightArm -15.150360 42.269468 69.161120
RightForeArm 74.618224 0.000000 2.848461
RightHand 12.034491 -0.000000 13.709591
RightHandThumb1 -24.326973 -0.000000 -32.862282
LeftUpLeg -34.883211 -9.816497 18.889349
LeftLeg 13.375270 -0.000000 -0.000000
LeftFoot -9.649357 21.633850 -3.386449
LeftToeBase -13.799872 -0.000000 0.000000
RightUpLeg -14.671097 15.014114 -20.179465
RightLeg 123.103309 -0.000000 -0.000000
RightFoot 46.709905 6.387641 1.132108
RightToeBase 14.587355 -0.000000 -0.000000
323
root 5.089370 33.304081 -8.081270 -68.060965 72.595529 -101.702456
Spine -22.983972 -19.686923 20.206061
Head 4.429477 9.521188 14.731155
LeftShoulder -16.874696 48.053194 17.006713
LeftArm 49.265190 -7.824152 -88.267388
LeftForeArm 7.533705 -0.000000 29.308895
LeftHand 6.474738 -0.000000 12.702835
LeftHandThumb1 -26.253704 0.000000 33.147579
RightShoulder -17.807550 -14.918423 -9.302918
RightArm -15.219959 42.624467 68.977181
RightForeArm 74.882788 -0.000000 3.036870
RightHand 11.759867 0.000000 14.199460
RightHandThumb1 -24.326973 -0.000000 -32.862282
LeftUpLeg -34.896150 -10.238467 19.149314
LeftLeg 13.126319 -0.000000 -0.000000
LeftFoot -9.583872 22.204008 -2.713301
LeftToeBase -13.792182 -0.000000 0.000000
RightUpLeg -14.708264 14.957698 -20.182487
RightLeg 123.126141 -0.000000 -0.000000
RightFoot 46.709615 6.263422 1.202368
RightToeBase 14.964391 -0.000000 -0.000000
324
root 5.090547 33.287496 -8.080498 -67.902992 72.621409 -101.717509
Spine -23.203843 -19.690500 20.290399
Head 4.451903 9.625426 14.735499
LeftShoulder -16.934278 48.061366 16.965793
LeftArm 49.225627 -7.831714 -88.217115
LeftForeArm 7.621906 -0.000000 29.355917
LeftHand 6.461566 0.000000 12.670304
LeftHandThumb1 -26.253704 0.000000 33.147579
RightShoulder -17.938783 -14.856023 -9.202396
RightArm -15.237018 42.925717 68.821096
RightForeArm 75.132406 -0.000000 3.262961
RightHand 11.446504 0.000000 14.892061
RightHandThumb1 -24.326973 -0.000000 -32.862282
LeftUpLeg -35.004804 -10.587437 19.361952
LeftLeg 12.964683 -0.000000 -0.000000
LeftFoot -9.449175 22.611800 -2.082781
LeftToeBase -13.914876 -0.000000 0.000000
RightUpLeg -14.771980 14.846924 -20.198515
RightLeg 123.177615 -0.000000 -0.000000
RightFoot 46.766647 6.408289 0.915181
RightToeBase 14.128251 -0.000000 -0.000000
325
root 5.087993 33.273393 -8.082503 -67.851878 72.725488 -101.869028
Spine -23.470743 -19.756632 20.335296
Head 4.489233 9.744862 14.750364
LeftShoulder -17.020059 48.078287 16.878493
LeftArm 49.221943 -7.858886 -88.112588
LeftForeArm 7.744101 -0.000000 29.357453
LeftHand 6.524418 -0.000000 12.685708
LeftHandThumb1 -26.253704 0.000000 33.147579
RightShoulder -18.007779 -14.722414 -9.113559
RightArm -15.416872 43.264208 68.562956
RightForeArm 75.212853 -0.000000 3.590554
RightHand 11.106684 0.000000 15.302829
RightHandThumb1 -24.326973 -0.000000 -32.862282
LeftUpLeg -35.230932 -10.931082 19.512448
LeftLeg 12.910006 -0.000000 -0.000000
LeftFoot -9.324934 22.894109 -1.689767
LeftToeBase -14.094468 -0.000000 0.000000
RightUpLeg -14.863326 14.679944 -20.286192
RightLeg 123.242730 -0.000000 -0.000000
RightFoot 46.766312 6.418319 0.762111
RightToeBase 13.584164 -0.000000 -0.000000
326
root 5.080845 33.262993 -8.088619 -67.834804 72.877991 -102.073486
Spine -23.741824 -19.843874 20.342703
Head 4.487296 9.877335 14.796924
LeftShoulder -17.099441 48.077211 16.785915
LeftArm 49.221357 -7.900420 -87.996617
LeftForeArm 7.928675 -0.000000 29.343754
LeftHand 6.507219 -0.000000 12.815122
LeftHandThumb1 -26.253704 0.000000 33.147579
RightShoulder -18.076159 -14.626070 -8.987120
RightArm -15.489265 43.563023 68.378977
RightForeArm 75.426737 -0.000000 3.872819
RightHand 10.819374 -0.000000 15.736433
RightHandThumb1 -24.326973 -0.000000 -32.862282
LeftUpLeg -35.541963 -11.228655 19.598114
LeftLeg 12.956684 -0.000000 -0.000000
LeftFoot -9.197132 23.009676 -1.485029
LeftToeBase -14.389027 -0.000000 0.000000
RightUpLeg -14.964455 14.440780 -20.410318
RightLeg 123.324520 -0.000000 -0.000000
RightFoot 47.022459 6.960265 -0.400836
RightToeBase 10.372238 -0.000000 -0.000000
327
root 5.069791 33.256102 -8.099080 -67.967923 73.045184 -102.442613
Spine -24.012128 -19.952213 20.373060
Head 4.422337 9.980099 14.811061
LeftShoulder -17.186502 48.077734 16.648566
LeftArm 49.251601 -7.974484 -87.882430
LeftForeArm 8.215564 -0.000000 29.342782
LeftHand 6.524014 -0.000000 12.839310
LeftHandThumb1 -26.253704 0.000000 33.147579
RightShoulder -18.121508 -14.575471 -8.861883
RightArm -15.479287 43.770066 68.294622
RightForeArm 75.603383 -0.000000 4.163585
RightHand 10.581144 -0.000000 16.502912
RightHandThumb1 -24.326973 -0.000000 -32.862282
LeftUpLeg -35.920584 -11.495197 19.646539
LeftLeg 13.080523 -0.000000 -0.000000
LeftFoot -9.057928 23.102654 -1.260766
LeftToeBase -14.559121 -0.000000 0.000000
RightUpLeg -15.072738 14.149937 -20.530566
RightLeg 123.349604 -0.000000 -0.000000
RightFoot 47.042105 6.860739 -0.769164
RightToeBase 9.666310 -0.000000 -0.000000
328
root 5.057303 33.251785 -8.109853 -68.237915 73.210518 -102.917132
Spine -24.223077 -20.080849 20.395431
Head 4.302800 10.064273 14.841779
LeftShoulder -17.201576 48.021382 16.577170
LeftArm 49.217666 -8.065741 -87.794235
LeftForeArm 8.487786 -0.000000 29.352591
LeftHand 6.563629 -0.000000 12.715194
LeftHandThumb1 -26.253704 0.000000 33.147579
RightShoulder -18.162340 -14.437063 -8.752487
RightArm -15.515625 43.858043 68.193274
RightForeArm 75.861472 -0.000000 4.417958
RightHand 10.317828 -0.000000 16.832867
RightHandThumb1 -24.326973 -0.000000 -32.862282
LeftUpLeg -36.301209 -11.716050 19.662284
LeftLeg 13.254294 -0.000000 -0.000000
LeftFoot -8.906171 23.099422 -1.066585
LeftToeBase -14.652897 -0.000000 0.000000
RightUpLeg -15.168649 13.875082 -20.630078
RightLeg 123.359372 -0.000000 -0.000000
RightFoot 46.849525 6.341887 -0.507314
RightToeBase 10.915677 -0.000000 -0.000000
